<mxfile host="app.diagrams.net" modified="2024-01-18T20:35:04.221Z" agent="Mozilla/5.0 (Macintosh; Intel Mac OS X 10_15_7) AppleWebKit/537.36 (KHTML, like Gecko) Chrome/120.0.0.0 Safari/537.36" etag="MCZ4Py4T9QX_xrZra56R" version="22.1.18" type="device">
  <diagram name="Page-1" id="9OxQLFC7fWhR2nlzlRD5">
    <mxGraphModel dx="1306" dy="847" grid="1" gridSize="10" guides="1" tooltips="1" connect="1" arrows="1" fold="1" page="1" pageScale="1" pageWidth="850" pageHeight="1100" math="0" shadow="0">
      <root>
        <mxCell id="0" />
        <mxCell id="1" parent="0" />
        <mxCell id="bOGT_kkFKz8ldqIj86lN-1" value="" style="ellipse;whiteSpace=wrap;html=1;aspect=fixed;" vertex="1" parent="1">
          <mxGeometry x="385" y="40" width="80" height="80" as="geometry" />
        </mxCell>
        <mxCell id="bOGT_kkFKz8ldqIj86lN-2" value="" style="ellipse;whiteSpace=wrap;html=1;aspect=fixed;" vertex="1" parent="1">
          <mxGeometry x="110" y="220" width="80" height="80" as="geometry" />
        </mxCell>
        <mxCell id="bOGT_kkFKz8ldqIj86lN-3" value="" style="ellipse;whiteSpace=wrap;html=1;aspect=fixed;" vertex="1" parent="1">
          <mxGeometry x="220" y="220" width="80" height="80" as="geometry" />
        </mxCell>
        <mxCell id="bOGT_kkFKz8ldqIj86lN-4" value="" style="ellipse;whiteSpace=wrap;html=1;aspect=fixed;" vertex="1" parent="1">
          <mxGeometry x="330" y="220" width="80" height="80" as="geometry" />
        </mxCell>
        <mxCell id="bOGT_kkFKz8ldqIj86lN-5" value="" style="ellipse;whiteSpace=wrap;html=1;aspect=fixed;" vertex="1" parent="1">
          <mxGeometry x="440" y="220" width="80" height="80" as="geometry" />
        </mxCell>
        <mxCell id="bOGT_kkFKz8ldqIj86lN-6" value="" style="ellipse;whiteSpace=wrap;html=1;aspect=fixed;" vertex="1" parent="1">
          <mxGeometry x="550" y="220" width="80" height="80" as="geometry" />
        </mxCell>
        <mxCell id="bOGT_kkFKz8ldqIj86lN-7" value="" style="ellipse;whiteSpace=wrap;html=1;aspect=fixed;" vertex="1" parent="1">
          <mxGeometry x="660" y="220" width="80" height="80" as="geometry" />
        </mxCell>
        <mxCell id="bOGT_kkFKz8ldqIj86lN-8" value="" style="ellipse;whiteSpace=wrap;html=1;aspect=fixed;" vertex="1" parent="1">
          <mxGeometry x="770" y="220" width="80" height="80" as="geometry" />
        </mxCell>
        <mxCell id="bOGT_kkFKz8ldqIj86lN-9" value="" style="ellipse;whiteSpace=wrap;html=1;aspect=fixed;" vertex="1" parent="1">
          <mxGeometry y="220" width="80" height="80" as="geometry" />
        </mxCell>
        <mxCell id="bOGT_kkFKz8ldqIj86lN-10" value="" style="endArrow=none;html=1;rounded=0;entryX=0.05;entryY=0.775;entryDx=0;entryDy=0;exitX=1;exitY=0;exitDx=0;exitDy=0;entryPerimeter=0;" edge="1" parent="1" source="bOGT_kkFKz8ldqIj86lN-9" target="bOGT_kkFKz8ldqIj86lN-1">
          <mxGeometry width="50" height="50" relative="1" as="geometry">
            <mxPoint x="400" y="460" as="sourcePoint" />
            <mxPoint x="450" y="410" as="targetPoint" />
          </mxGeometry>
        </mxCell>
        <mxCell id="bOGT_kkFKz8ldqIj86lN-11" value="" style="endArrow=none;html=1;rounded=0;entryX=0.05;entryY=0.775;entryDx=0;entryDy=0;exitX=0.963;exitY=0.213;exitDx=0;exitDy=0;entryPerimeter=0;exitPerimeter=0;" edge="1" parent="1" source="bOGT_kkFKz8ldqIj86lN-2">
          <mxGeometry width="50" height="50" relative="1" as="geometry">
            <mxPoint x="78" y="242" as="sourcePoint" />
            <mxPoint x="399" y="112" as="targetPoint" />
          </mxGeometry>
        </mxCell>
        <mxCell id="bOGT_kkFKz8ldqIj86lN-12" value="" style="endArrow=none;html=1;rounded=0;entryX=0.3;entryY=0.95;entryDx=0;entryDy=0;entryPerimeter=0;" edge="1" parent="1" source="bOGT_kkFKz8ldqIj86lN-3" target="bOGT_kkFKz8ldqIj86lN-1">
          <mxGeometry width="50" height="50" relative="1" as="geometry">
            <mxPoint x="197" y="247" as="sourcePoint" />
            <mxPoint x="409" y="122" as="targetPoint" />
          </mxGeometry>
        </mxCell>
        <mxCell id="bOGT_kkFKz8ldqIj86lN-13" value="" style="endArrow=none;html=1;rounded=0;" edge="1" parent="1" source="bOGT_kkFKz8ldqIj86lN-4" target="bOGT_kkFKz8ldqIj86lN-1">
          <mxGeometry width="50" height="50" relative="1" as="geometry">
            <mxPoint x="297" y="240" as="sourcePoint" />
            <mxPoint x="408" y="119" as="targetPoint" />
          </mxGeometry>
        </mxCell>
        <mxCell id="bOGT_kkFKz8ldqIj86lN-14" value="" style="endArrow=none;html=1;rounded=0;" edge="1" parent="1" source="bOGT_kkFKz8ldqIj86lN-5" target="bOGT_kkFKz8ldqIj86lN-1">
          <mxGeometry width="50" height="50" relative="1" as="geometry">
            <mxPoint x="392" y="232" as="sourcePoint" />
            <mxPoint x="423" y="128" as="targetPoint" />
          </mxGeometry>
        </mxCell>
        <mxCell id="bOGT_kkFKz8ldqIj86lN-15" value="" style="endArrow=none;html=1;rounded=0;" edge="1" parent="1" source="bOGT_kkFKz8ldqIj86lN-6" target="bOGT_kkFKz8ldqIj86lN-1">
          <mxGeometry width="50" height="50" relative="1" as="geometry">
            <mxPoint x="478" y="232" as="sourcePoint" />
            <mxPoint x="447" y="128" as="targetPoint" />
          </mxGeometry>
        </mxCell>
        <mxCell id="bOGT_kkFKz8ldqIj86lN-16" value="" style="endArrow=none;html=1;rounded=0;" edge="1" parent="1" source="bOGT_kkFKz8ldqIj86lN-7" target="bOGT_kkFKz8ldqIj86lN-1">
          <mxGeometry width="50" height="50" relative="1" as="geometry">
            <mxPoint x="573" y="240" as="sourcePoint" />
            <mxPoint x="462" y="119" as="targetPoint" />
          </mxGeometry>
        </mxCell>
        <mxCell id="bOGT_kkFKz8ldqIj86lN-17" value="" style="endArrow=none;html=1;rounded=0;" edge="1" parent="1" source="bOGT_kkFKz8ldqIj86lN-8" target="bOGT_kkFKz8ldqIj86lN-1">
          <mxGeometry width="50" height="50" relative="1" as="geometry">
            <mxPoint x="677" y="248" as="sourcePoint" />
            <mxPoint x="468" y="112" as="targetPoint" />
          </mxGeometry>
        </mxCell>
        <mxCell id="bOGT_kkFKz8ldqIj86lN-18" value="" style="ellipse;whiteSpace=wrap;html=1;aspect=fixed;" vertex="1" parent="1">
          <mxGeometry x="200" y="380" width="80" height="80" as="geometry" />
        </mxCell>
        <mxCell id="bOGT_kkFKz8ldqIj86lN-19" value="" style="ellipse;whiteSpace=wrap;html=1;aspect=fixed;" vertex="1" parent="1">
          <mxGeometry x="460" y="380" width="80" height="80" as="geometry" />
        </mxCell>
        <mxCell id="bOGT_kkFKz8ldqIj86lN-20" value="" style="ellipse;whiteSpace=wrap;html=1;aspect=fixed;" vertex="1" parent="1">
          <mxGeometry x="310" y="405" width="30" height="30" as="geometry" />
        </mxCell>
        <mxCell id="bOGT_kkFKz8ldqIj86lN-21" value="" style="ellipse;whiteSpace=wrap;html=1;aspect=fixed;" vertex="1" parent="1">
          <mxGeometry x="350" y="405" width="30" height="30" as="geometry" />
        </mxCell>
        <mxCell id="bOGT_kkFKz8ldqIj86lN-22" value="" style="ellipse;whiteSpace=wrap;html=1;aspect=fixed;" vertex="1" parent="1">
          <mxGeometry x="390" y="405" width="30" height="30" as="geometry" />
        </mxCell>
        <mxCell id="bOGT_kkFKz8ldqIj86lN-23" value="" style="endArrow=none;html=1;rounded=0;exitX=1;exitY=0;exitDx=0;exitDy=0;" edge="1" parent="1" source="bOGT_kkFKz8ldqIj86lN-18" target="bOGT_kkFKz8ldqIj86lN-4">
          <mxGeometry width="50" height="50" relative="1" as="geometry">
            <mxPoint x="400" y="460" as="sourcePoint" />
            <mxPoint x="450" y="410" as="targetPoint" />
          </mxGeometry>
        </mxCell>
        <mxCell id="bOGT_kkFKz8ldqIj86lN-24" value="" style="endArrow=none;html=1;rounded=0;" edge="1" parent="1" source="bOGT_kkFKz8ldqIj86lN-19" target="bOGT_kkFKz8ldqIj86lN-4">
          <mxGeometry width="50" height="50" relative="1" as="geometry">
            <mxPoint x="278" y="402" as="sourcePoint" />
            <mxPoint x="356" y="302" as="targetPoint" />
          </mxGeometry>
        </mxCell>
      </root>
    </mxGraphModel>
  </diagram>
</mxfile>
